M48
; DRILL file {KiCad 6.0.2+dfsg-1} date Thu 29 Aug 2024 04:54:36 PM KST
; FORMAT={-:-/ absolute / inch / decimal}
; #@! TF.CreationDate,2024-08-29T16:54:36+09:00
; #@! TF.GenerationSoftware,Kicad,Pcbnew,6.0.2+dfsg-1
; #@! TF.FileFunction,Plated,1,2,PTH
FMAT,2
INCH
; #@! TA.AperFunction,Plated,PTH,ComponentDrill
T1C0.0300
; #@! TA.AperFunction,Plated,PTH,ComponentDrill
T2C0.0394
%
G90
G05
T1
X5.2Y-1.7
X5.2Y-1.8
X5.2Y-1.9
X5.2Y-2.0
X5.2Y-2.1
X5.2Y-2.2
X5.2Y-2.3
X5.2Y-2.4
T2
X5.8691Y-1.85
X5.8691Y-1.95
X5.8691Y-2.05
X5.8691Y-2.15
X5.8691Y-2.25
X5.8691Y-2.35
X5.8691Y-2.45
X5.8691Y-2.55
X6.7691Y-1.85
X6.7691Y-1.95
X6.7691Y-2.05
X6.7691Y-2.15
X6.7691Y-2.25
X6.7691Y-2.35
X6.7691Y-2.45
X6.7691Y-2.55
T0
M30
