<?xml version='1.0' encoding='UTF-8'?>
<!DOCTYPE svg PUBLIC "-//W3C//DTD SVG 1.0//EN" "http://www.w3.org/TR/2001/REC-SVG-20010904/DTD/svg10.dtd">
<svg viewBox="0 0 1976 444" xmlns="http://www.w3.org/2000/svg" xmlns:inkspace="http://www.inkscape.org/namespaces/inkscape" xmlns:xlink="http://www.w3.org/1999/xlink">
  <defs id="defs_block">
    <filter height="1.504" id="filter_blur" inkspace:collect="always" width="1.1575" x="-0.07875" y="-0.252">
      <feGaussianBlur id="feGaussianBlur3780" inkspace:collect="always" stdDeviation="4.2" />
    </filter>
  </defs>
  <title>blockdiag</title>
  <desc>nwdiag {
  network dmz {
      address = "210.x.x.x/24"

      web01 [address = "210.x.x.1"];
      web02 [address = "210.x.x.2"];
  }
  network internal {
      address = "172.x.x.x/24";

      web01 [address = "172.x.x.1"];
      web02 [address = "172.x.x.2"];
      db01;
      db02;
  }
}
</desc>
  <rect fill="rgb(0,0,0)" height="40" stroke="rgb(0,0,0)" style="filter:url(#filter_blur);opacity:0.7;fill-opacity:1" width="104" x="155" y="162" />
  <rect fill="rgb(0,0,0)" height="40" stroke="rgb(0,0,0)" style="filter:url(#filter_blur);opacity:0.7;fill-opacity:1" width="104" x="307" y="162" />
  <rect fill="rgb(0,0,0)" height="40" stroke="rgb(0,0,0)" style="filter:url(#filter_blur);opacity:0.7;fill-opacity:1" width="104" x="459" y="162" />
  <rect fill="rgb(0,0,0)" height="40" stroke="rgb(0,0,0)" style="filter:url(#filter_blur);opacity:0.7;fill-opacity:1" width="104" x="611" y="162" />
  <rect fill="rgb(0,0,0)" height="40" stroke="rgb(0,0,0)" style="filter:url(#filter_blur);opacity:0.7;fill-opacity:1" width="104" x="763" y="162" />
  <rect fill="rgb(0,0,0)" height="40" stroke="rgb(0,0,0)" style="filter:url(#filter_blur);opacity:0.7;fill-opacity:1" width="104" x="915" y="162" />
  <rect fill="rgb(0,0,0)" height="40" stroke="rgb(0,0,0)" style="filter:url(#filter_blur);opacity:0.7;fill-opacity:1" width="104" x="1067" y="162" />
  <rect fill="rgb(0,0,0)" height="40" stroke="rgb(0,0,0)" style="filter:url(#filter_blur);opacity:0.7;fill-opacity:1" width="104" x="1219" y="162" />
  <rect fill="rgb(0,0,0)" height="40" stroke="rgb(0,0,0)" style="filter:url(#filter_blur);opacity:0.7;fill-opacity:1" width="104" x="1371" y="162" />
  <rect fill="rgb(0,0,0)" height="40" stroke="rgb(0,0,0)" style="filter:url(#filter_blur);opacity:0.7;fill-opacity:1" width="104" x="459" y="306" />
  <rect fill="rgb(0,0,0)" height="40" stroke="rgb(0,0,0)" style="filter:url(#filter_blur);opacity:0.7;fill-opacity:1" width="104" x="915" y="306" />
  <rect fill="rgb(0,0,0)" height="40" stroke="rgb(0,0,0)" style="filter:url(#filter_blur);opacity:0.7;fill-opacity:1" width="104" x="1371" y="306" />
  <rect fill="rgb(0,0,0)" height="40" stroke="rgb(0,0,0)" style="filter:url(#filter_blur);opacity:0.7;fill-opacity:1" width="104" x="1523" y="306" />
  <rect fill="rgb(0,0,0)" height="40" stroke="rgb(0,0,0)" style="filter:url(#filter_blur);opacity:0.7;fill-opacity:1" width="104" x="1675" y="306" />
  <rect fill="rgb(0,0,0)" height="40" stroke="rgb(0,0,0)" style="filter:url(#filter_blur);opacity:0.7;fill-opacity:1" width="104" x="1827" y="306" />
  <path d="M 131 103 L 1499 103 A2,4 0 0 1 1499 111 L 131 111 A2,4 0 0 1 131 103" fill="rgb(0,0,0)" style="filter:url(#filter_blur)" />
  <path d="M 131 247 L 1955 247 A2,4 0 0 1 1955 255 L 131 255 A2,4 0 0 1 131 247" fill="rgb(0,0,0)" style="filter:url(#filter_blur)" />
  <path d="M 128 100 L 1496 100 A2,4 0 0 1 1496 108 L 128 108 A2,4 0 0 1 128 100" fill="rgb(185,203,228)" stroke="rgb(0,0,0)" />
  <path d="M 1496 108 A2,4 0 0 1 1496 100" fill="none" stroke="rgb(0,0,0)" />
  <path d="M 128 100 L 1496 100" fill="none" stroke="none" />
  <path d="M 812 35 L 812 100" fill="none" stroke="rgb(0,0,0)" />
  <path d="M 128 244 L 1952 244 A2,4 0 0 1 1952 252 L 128 252 A2,4 0 0 1 128 244" fill="rgb(185,203,228)" stroke="rgb(0,0,0)" />
  <path d="M 1952 252 A2,4 0 0 1 1952 244" fill="none" stroke="rgb(0,0,0)" />
  <path d="M 128 244 L 1952 244" fill="none" stroke="none" />
  <text fill="rgb(0,0,0)" font-family="sans-serif" font-size="11" font-style="normal" font-weight="normal" text-anchor="middle" textLength="18" x="111" y="110">dmz</text>
  <text fill="rgb(0,0,0)" font-family="sans-serif" font-size="11" font-style="normal" font-weight="normal" text-anchor="middle" textLength="48" x="96" y="254">internal</text>
  <path d="M 204 108 L 204 156" fill="none" stroke="rgb(0,0,0)" />
  <path d="M 204 196 L 204 244" fill="none" stroke="rgb(0,0,0)" />
  <rect fill="rgb(255,255,255)" height="40" stroke="rgb(0,0,0)" width="104" x="152" y="156" />
  <text fill="rgb(0,0,0)" font-family="sans-serif" font-size="11" font-style="normal" font-weight="normal" text-anchor="middle" textLength="42" x="204" y="182">address</text>
  <path d="M 356 108 L 356 156" fill="none" stroke="rgb(0,0,0)" />
  <path d="M 356 196 L 356 244" fill="none" stroke="rgb(0,0,0)" />
  <rect fill="rgb(255,255,255)" height="40" stroke="rgb(0,0,0)" width="104" x="304" y="156" />
  <text fill="rgb(0,0,0)" font-family="sans-serif" font-size="11" font-style="normal" font-weight="normal" text-anchor="middle" textLength="6" x="356" y="182">=</text>
  <path d="M 508 108 L 508 156" fill="none" stroke="rgb(0,0,0)" />
  <rect fill="rgb(255,255,255)" height="40" stroke="rgb(0,0,0)" width="104" x="456" y="156" />
  <text fill="rgb(0,0,0)" font-family="sans-serif" font-size="11" font-style="normal" font-weight="normal" text-anchor="middle" textLength="72" x="508" y="182">210.x.x.x/24</text>
  <path d="M 660 108 L 660 156" fill="none" stroke="rgb(0,0,0)" />
  <path d="M 660 196 L 660 244" fill="none" stroke="rgb(0,0,0)" />
  <rect fill="rgb(255,255,255)" height="40" stroke="rgb(0,0,0)" width="104" x="608" y="156" />
  <text fill="rgb(0,0,0)" font-family="sans-serif" font-size="11" font-style="normal" font-weight="normal" text-anchor="middle" textLength="30" x="660" y="182">web01</text>
  <path d="M 812 108 L 812 156" fill="none" stroke="rgb(0,0,0)" />
  <path d="M 812 196 L 812 244" fill="none" stroke="rgb(0,0,0)" />
  <rect fill="rgb(255,255,255)" height="40" stroke="rgb(0,0,0)" width="104" x="760" y="156" />
  <text fill="rgb(0,0,0)" font-family="sans-serif" font-size="11" font-style="normal" font-weight="normal" text-anchor="middle" textLength="48" x="812" y="182">[address</text>
  <path d="M 964 108 L 964 156" fill="none" stroke="rgb(0,0,0)" />
  <rect fill="rgb(255,255,255)" height="40" stroke="rgb(0,0,0)" width="104" x="912" y="156" />
  <text fill="rgb(0,0,0)" font-family="sans-serif" font-size="11" font-style="normal" font-weight="normal" text-anchor="middle" textLength="54" x="964" y="182">210.x.x.1</text>
  <path d="M 1116 108 L 1116 156" fill="none" stroke="rgb(0,0,0)" />
  <path d="M 1116 196 L 1116 244" fill="none" stroke="rgb(0,0,0)" />
  <rect fill="rgb(255,255,255)" height="40" stroke="rgb(0,0,0)" width="104" x="1064" y="156" />
  <text fill="rgb(0,0,0)" font-family="sans-serif" font-size="11" font-style="normal" font-weight="normal" text-anchor="middle" textLength="12" x="1116" y="182">];</text>
  <path d="M 1268 108 L 1268 156" fill="none" stroke="rgb(0,0,0)" />
  <path d="M 1268 196 L 1268 244" fill="none" stroke="rgb(0,0,0)" />
  <rect fill="rgb(255,255,255)" height="40" stroke="rgb(0,0,0)" width="104" x="1216" y="156" />
  <text fill="rgb(0,0,0)" font-family="sans-serif" font-size="11" font-style="normal" font-weight="normal" text-anchor="middle" textLength="30" x="1268" y="182">web02</text>
  <path d="M 1420 108 L 1420 156" fill="none" stroke="rgb(0,0,0)" />
  <rect fill="rgb(255,255,255)" height="40" stroke="rgb(0,0,0)" width="104" x="1368" y="156" />
  <text fill="rgb(0,0,0)" font-family="sans-serif" font-size="11" font-style="normal" font-weight="normal" text-anchor="middle" textLength="54" x="1420" y="182">210.x.x.2</text>
  <path d="M 508 252 L 508 300" fill="none" stroke="rgb(0,0,0)" />
  <rect fill="rgb(255,255,255)" height="40" stroke="rgb(0,0,0)" width="104" x="456" y="300" />
  <text fill="rgb(0,0,0)" font-family="sans-serif" font-size="11" font-style="normal" font-weight="normal" text-anchor="middle" textLength="72" x="508" y="326">172.x.x.x/24</text>
  <path d="M 964 252 L 964 300" fill="none" stroke="rgb(0,0,0)" />
  <rect fill="rgb(255,255,255)" height="40" stroke="rgb(0,0,0)" width="104" x="912" y="300" />
  <text fill="rgb(0,0,0)" font-family="sans-serif" font-size="11" font-style="normal" font-weight="normal" text-anchor="middle" textLength="6" x="964" y="326">;</text>
  <path d="M 1420 252 L 1420 300" fill="none" stroke="rgb(0,0,0)" />
  <rect fill="rgb(255,255,255)" height="40" stroke="rgb(0,0,0)" width="104" x="1368" y="300" />
  <text fill="rgb(0,0,0)" font-family="sans-serif" font-size="11" font-style="normal" font-weight="normal" text-anchor="middle" textLength="54" x="1420" y="326">172.x.x.1</text>
  <path d="M 1572 252 L 1572 300" fill="none" stroke="rgb(0,0,0)" />
  <rect fill="rgb(255,255,255)" height="40" stroke="rgb(0,0,0)" width="104" x="1520" y="300" />
  <text fill="rgb(0,0,0)" font-family="sans-serif" font-size="11" font-style="normal" font-weight="normal" text-anchor="middle" textLength="54" x="1572" y="326">172.x.x.2</text>
  <path d="M 1724 252 L 1724 300" fill="none" stroke="rgb(0,0,0)" />
  <rect fill="rgb(255,255,255)" height="40" stroke="rgb(0,0,0)" width="104" x="1672" y="300" />
  <text fill="rgb(0,0,0)" font-family="sans-serif" font-size="11" font-style="normal" font-weight="normal" text-anchor="middle" textLength="30" x="1724" y="326">db01;</text>
  <path d="M 1876 252 L 1876 300" fill="none" stroke="rgb(0,0,0)" />
  <rect fill="rgb(255,255,255)" height="40" stroke="rgb(0,0,0)" width="104" x="1824" y="300" />
  <text fill="rgb(0,0,0)" font-family="sans-serif" font-size="11" font-style="normal" font-weight="normal" text-anchor="middle" textLength="30" x="1876" y="326">db02;</text>
</svg>
