%TF.GenerationSoftware,KiCad,Pcbnew,6.0.2+dfsg-1*%
%TF.CreationDate,2024-08-29T16:54:10+09:00*%
%TF.ProjectId,first,66697273-742e-46b6-9963-61645f706362,rev?*%
%TF.SameCoordinates,Original*%
%TF.FileFunction,Copper,L1,Top*%
%TF.FilePolarity,Positive*%
%FSLAX46Y46*%
G04 Gerber Fmt 4.6, Leading zero omitted, Abs format (unit mm)*
G04 Created by KiCad (PCBNEW 6.0.2+dfsg-1) date 2024-08-29 16:54:10*
%MOMM*%
%LPD*%
G01*
G04 APERTURE LIST*
%TA.AperFunction,ComponentPad*%
%ADD10R,2.000000X2.000000*%
%TD*%
%TA.AperFunction,ComponentPad*%
%ADD11O,2.000000X1.600000*%
%TD*%
%TA.AperFunction,ComponentPad*%
%ADD12C,1.524000*%
%TD*%
%TA.AperFunction,Conductor*%
%ADD13C,0.250000*%
%TD*%
G04 APERTURE END LIST*
D10*
%TO.P,U2,1,~{RST}*%
%TO.N,unconnected-(U2-Pad1)*%
X149075000Y-46990000D03*
D11*
%TO.P,U2,2,A0*%
%TO.N,unconnected-(U2-Pad2)*%
X149075000Y-49530000D03*
%TO.P,U2,3,D0*%
%TO.N,unconnected-(U2-Pad3)*%
X149075000Y-52070000D03*
%TO.P,U2,4,SCK/D5*%
%TO.N,unconnected-(U2-Pad4)*%
X149075000Y-54610000D03*
%TO.P,U2,5,MISO/D6*%
%TO.N,Net-(U1-PadMISO)*%
X149075000Y-57150000D03*
%TO.P,U2,6,MOSI/D7*%
%TO.N,Net-(U1-PadMOSI)*%
X149075000Y-59690000D03*
%TO.P,U2,7,CS/D8*%
%TO.N,Net-(U1-PadSS)*%
X149075000Y-62230000D03*
%TO.P,U2,8,3V3*%
%TO.N,+3V3*%
X149075000Y-64770000D03*
%TO.P,U2,9,5V*%
%TO.N,+5V*%
X171935000Y-64770000D03*
%TO.P,U2,10,GND*%
%TO.N,GND*%
X171935000Y-62230000D03*
%TO.P,U2,11,D4*%
%TO.N,unconnected-(U2-Pad11)*%
X171935000Y-59690000D03*
%TO.P,U2,12,D3*%
%TO.N,unconnected-(U2-Pad12)*%
X171935000Y-57150000D03*
%TO.P,U2,13,SDA/D2*%
%TO.N,Net-(U1-PadSCK)*%
X171935000Y-54610000D03*
%TO.P,U2,14,SCL/D1*%
%TO.N,unconnected-(U2-Pad14)*%
X171935000Y-52070000D03*
%TO.P,U2,15,RX*%
%TO.N,unconnected-(U2-Pad15)*%
X171935000Y-49530000D03*
%TO.P,U2,16,TX*%
%TO.N,unconnected-(U2-Pad16)*%
X171935000Y-46990000D03*
%TD*%
D12*
%TO.P,U1,GND,GND*%
%TO.N,GND*%
X132080000Y-55880000D03*
%TO.P,U1,IRQ,IRQ*%
%TO.N,unconnected-(U1-PadIRQ)*%
X132080000Y-58420000D03*
%TO.P,U1,MISO,MISO*%
%TO.N,Net-(U1-PadMISO)*%
X132080000Y-45720000D03*
%TO.P,U1,MOSI,MOSI*%
%TO.N,Net-(U1-PadMOSI)*%
X132080000Y-48260000D03*
%TO.P,U1,RSTO,RSTO*%
%TO.N,unconnected-(U1-PadRSTO)*%
X132080000Y-60960000D03*
%TO.P,U1,SCK,SCK*%
%TO.N,Net-(U1-PadSCK)*%
X132080000Y-43180000D03*
%TO.P,U1,SS,SS*%
%TO.N,Net-(U1-PadSS)*%
X132080000Y-50800000D03*
%TO.P,U1,VCC,VCC*%
%TO.N,+3V3*%
X132080000Y-53340000D03*
%TD*%
D13*
%TO.N,GND*%
X132080000Y-55880000D02*
X134620000Y-55880000D01*
X134620000Y-55880000D02*
X147320000Y-68580000D01*
X147320000Y-68580000D02*
X154940000Y-68580000D01*
X154940000Y-68580000D02*
X161290000Y-62230000D01*
X161290000Y-62230000D02*
X171935000Y-62230000D01*
%TO.N,+3V3*%
X132080000Y-53340000D02*
X137645000Y-53340000D01*
X137645000Y-53340000D02*
X149075000Y-64770000D01*
%TO.N,Net-(U1-PadSS)*%
X132080000Y-50800000D02*
X137645000Y-50800000D01*
X137645000Y-50800000D02*
X149075000Y-62230000D01*
%TO.N,Net-(U1-PadMOSI)*%
X132080000Y-48260000D02*
X137645000Y-48260000D01*
X137645000Y-48260000D02*
X149075000Y-59690000D01*
%TO.N,Net-(U1-PadMISO)*%
X139700000Y-45720000D02*
X142240000Y-48260000D01*
X132080000Y-45720000D02*
X139700000Y-45720000D01*
X142240000Y-48260000D02*
X142240000Y-50315000D01*
X142240000Y-50315000D02*
X149075000Y-57150000D01*
%TO.N,Net-(U1-PadSCK)*%
X175260000Y-45720000D02*
X175260000Y-53340000D01*
X132080000Y-43180000D02*
X172720000Y-43180000D01*
X172720000Y-43180000D02*
X175260000Y-45720000D01*
X175260000Y-53340000D02*
X173990000Y-54610000D01*
X173990000Y-54610000D02*
X171935000Y-54610000D01*
%TD*%
M02*
