%TF.GenerationSoftware,KiCad,Pcbnew,6.0.2+dfsg-1*%
%TF.CreationDate,2024-08-29T16:54:15+09:00*%
%TF.ProjectId,first,66697273-742e-46b6-9963-61645f706362,rev?*%
%TF.SameCoordinates,Original*%
%TF.FileFunction,Legend,Top*%
%TF.FilePolarity,Positive*%
%FSLAX46Y46*%
G04 Gerber Fmt 4.6, Leading zero omitted, Abs format (unit mm)*
G04 Created by KiCad (PCBNEW 6.0.2+dfsg-1) date 2024-08-29 16:54:15*
%MOMM*%
%LPD*%
G01*
G04 APERTURE LIST*
%ADD10C,0.150000*%
%ADD11C,0.120000*%
G04 APERTURE END LIST*
D10*
%TO.C,U2*%
X170313095Y-73442380D02*
X170313095Y-74251904D01*
X170360714Y-74347142D01*
X170408333Y-74394761D01*
X170503571Y-74442380D01*
X170694047Y-74442380D01*
X170789285Y-74394761D01*
X170836904Y-74347142D01*
X170884523Y-74251904D01*
X170884523Y-73442380D01*
X171313095Y-73537619D02*
X171360714Y-73490000D01*
X171455952Y-73442380D01*
X171694047Y-73442380D01*
X171789285Y-73490000D01*
X171836904Y-73537619D01*
X171884523Y-73632857D01*
X171884523Y-73728095D01*
X171836904Y-73870952D01*
X171265476Y-74442380D01*
X171884523Y-74442380D01*
%TO.C,U1*%
X131318095Y-52292380D02*
X131318095Y-53101904D01*
X131365714Y-53197142D01*
X131413333Y-53244761D01*
X131508571Y-53292380D01*
X131699047Y-53292380D01*
X131794285Y-53244761D01*
X131841904Y-53197142D01*
X131889523Y-53101904D01*
X131889523Y-52292380D01*
X132889523Y-53292380D02*
X132318095Y-53292380D01*
X132603809Y-53292380D02*
X132603809Y-52292380D01*
X132508571Y-52435238D01*
X132413333Y-52530476D01*
X132318095Y-52578095D01*
D11*
%TO.C,U2*%
X147575000Y-66210000D02*
X150115000Y-66210000D01*
X150115000Y-66210000D02*
X150115000Y-73110000D01*
X150115000Y-73110000D02*
X173435000Y-73110000D01*
X147575000Y-66210000D02*
X147575000Y-40780000D01*
X171315000Y-38650000D02*
X149705000Y-38650000D01*
X173435000Y-73110000D02*
X173435000Y-40780000D01*
X173435000Y-40780000D02*
G75*
G03*
X171305000Y-38650000I-2130002J-2D01*
G01*
X149705000Y-38650000D02*
G75*
G03*
X147575000Y-40780000I2J-2130002D01*
G01*
D10*
X146535000Y-46355000D02*
X146535000Y-47625000D01*
X146535000Y-47625000D02*
X147170000Y-46990000D01*
X147170000Y-46990000D02*
X146535000Y-46355000D01*
G36*
X147170000Y-46990000D02*
G01*
X146535000Y-47625000D01*
X146535000Y-46355000D01*
X147170000Y-46990000D01*
G37*
X147170000Y-46990000D02*
X146535000Y-47625000D01*
X146535000Y-46355000D01*
X147170000Y-46990000D01*
D11*
%TO.C,U1*%
X129540000Y-40640000D02*
X139700000Y-40640000D01*
X139700000Y-40640000D02*
X139700000Y-63500000D01*
X139700000Y-63500000D02*
X129540000Y-63500000D01*
X129540000Y-63500000D02*
X129540000Y-40640000D01*
%TD*%
M02*
